<svg xmlns="http://www.w3.org/2000/svg" viewBox="0 0 24 24" role="img" aria-label="小红书">
  <path
    fill="#18181b"
    d="M10.3723 14.8641c-.1743.312-.362.6041-.4802.9178h2.6517v.881c0 .3554-.2646.6597-.615.704l-.0928.0062H9.5319c-.3304 0-.6109-.2432-.6602-.5744l-.007-.0956v-3.489h2.4102c-.362.549-.633.9996-.9026 1.65zm-6.6789 2.6891c1.857-.822 1.6666-5.9684 1.6666-5.9684H2.7877c.1003 1.2159.0223 2.4894-.226 3.7486-.1158.5874-.254 1.0969-.3906 1.5091l-.1407.3978 1.38 2.0618.282-.749zM8.115 11.5848s-.0703 2.0328.2763 4.0321l.0855.4528c.2842 1.3907.831 2.765 1.8317 3.2074l.1308.0486.2017-.7496.397-.9817-.2326-.0562c-.9141-.2565-1.0975-2.9077-1.0975-2.9077-.1109-1.252-.0465-2.3667-.0028-2.8956l.0139-.15H8.115zm-2.7549 5.118c0 1.5462 1.581 1.6716 1.581 1.6716h.8117c1.6277 0 1.7084-1.6715 1.7084-1.6715v-9.681H6.9407v9.681h-1.5806zm6.564-4.5196H13.59l-1.2793 2.108s-.7436 1.1815.4488 1.2294h2.7837l1.1165-1.6255h-1.3839c-.1779 0-.2973-.1562-.2098-.2783l2.0708-3.2874h-2.4122l-.1468.2404h-.1496c-.1785 0-.2981-.1548-.2098-.2762l1.7285-2.6831h-2.413l-2.0545 3.3467s-.7437 1.1926.4446 1.226zm9.9956 0h1.5901v-2.07h-5.6846v2.07h1.6231v5.919h-2.3814l-1.205 1.9506h8.4687v-1.9505h-2.411v-5.919h.0001zM11.9203 18.596c-.2484.3317-.4697.5912-.6625.7794l-.1577.1429s.2103.226.6268.226h3.0953l1.3254-2.0269h-3.2869s-.312.0257-.5069-.144l-.045-.0438-.3885 1.0664zm11.6973-7.8927v-1.336c0-1.2462-1.2523-2.2617-2.7974-2.2617h-.9682V6.465h-2.4535v.6268h-1.5507v2.023h1.5507v1.576h-2.4579v2.0349h2.4579v4.322h2.4535v-4.322h3.3767c.3291 0 .5976.2168.5976.4814v2.1317H21.49c0 .9437.9445 1.71 2.1136 1.71h.6402c1.1683 0 2.1135-.7663 2.1135-1.71v-2.6729c0-1.0837-1.0293-1.9633-2.3013-1.9633h-.4384v.0007zm-3.7526.0006V9.1273h.8792c.2125.001.3839.1358.385.3023v1.2743H19.865zm5.7635-2.6133c0-.5011-.3694-.9075-.8248-.9075-.4555 0-.8249.4064-.8249.9075v.9075h.8249c.4554 0 .8248-.4064.8248-.9075z"
  />
</svg>
